<svg width="16" height="19" viewBox="0 0 16 19" fill="none" xmlns="http://www.w3.org/2000/svg">
<path d="M14.7036 14.5559L15.0369 15.0001C15.0834 15.062 15.1116 15.1356 15.1186 15.2127C15.1255 15.2897 15.1109 15.3672 15.0763 15.4364C15.0417 15.5056 14.9885 15.5638 14.9227 15.6045C14.8568 15.6452 14.781 15.6667 14.7036 15.6667H1.37028C1.2929 15.6667 1.21705 15.6452 1.15123 15.6045C1.0854 15.5638 1.03221 15.5056 0.997602 15.4364C0.962997 15.3672 0.948348 15.2897 0.955297 15.2127C0.962246 15.1356 0.990519 15.062 1.03695 15.0001L1.37028 14.5559V7.33341C1.37028 5.5653 2.07266 3.86961 3.3229 2.61937C4.57314 1.36913 6.26884 0.666748 8.03695 0.666748C9.80506 0.666748 11.5007 1.36913 12.751 2.61937C14.0012 3.86961 14.7036 5.5653 14.7036 7.33341V14.5559ZM5.95361 16.5001H10.1203C10.1203 17.0526 9.90079 17.5825 9.51009 17.9732C9.11938 18.3639 8.58948 18.5834 8.03695 18.5834C7.48441 18.5834 6.95451 18.3639 6.56381 17.9732C6.17311 17.5825 5.95361 17.0526 5.95361 16.5001Z" fill="#F5F5F5"/>
</svg>
