<svg width="40" height="41" viewBox="0 0 40 41" fill="none" xmlns="http://www.w3.org/2000/svg">
<path d="M18 0.270081C17.6 0.270081 17.2 0.470081 16.8 0.670081L1 9.47008C0.4 9.87008 0 10.4701 0 11.2701V29.2701C0 30.0701 0.4 30.6701 1 31.0701L16.8 39.8701C17.2 40.0701 17.6 40.2701 18 40.2701C18.4 40.2701 18.8 40.0701 19.2 39.8701L21 38.8701C20.4 37.6701 20.2 36.2701 20 34.8701V21.4701L32 14.6701V22.2701C33.4 22.2701 34.8 22.4701 36 22.8701V11.2701C36 10.4701 35.6 9.87008 35 9.47008L19.2 0.670081C18.8 0.470081 18.4 0.270081 18 0.270081ZM18 4.67008L30 11.2701L26 13.4701L14.2 6.67008L18 4.67008ZM10.2 8.87008L22 15.8701L18 18.0701L6 11.2701L10.2 8.87008ZM4 14.6701L16 21.4701V34.8701L4 28.0701V14.6701ZM36.6 27.8701L29.4 35.0701L26.2 31.8701L24 34.2701L29.6 40.2701L39.2 30.6701L36.6 27.8701Z" fill="#388E3C"/>
</svg>
