<svg width="42" height="42" viewBox="0 0 42 42" fill="none" xmlns="http://www.w3.org/2000/svg">
<path d="M21 0C16.8466 0 12.7865 1.23163 9.33303 3.53914C5.8796 5.84665 3.18798 9.1264 1.59854 12.9636C0.00909895 16.8009 -0.406771 21.0233 0.403519 25.0969C1.21381 29.1705 3.21386 32.9123 6.15077 35.8492C9.08767 38.7861 12.8295 40.7862 16.9031 41.5965C20.9767 42.4068 25.1991 41.9909 29.0364 40.4015C32.8736 38.812 36.1534 36.1204 38.4609 32.667C40.7684 29.2135 42 25.1534 42 21C41.9937 15.4324 39.7791 10.0947 35.8422 6.15777C31.9053 2.22089 26.5676 0.00635208 21 0ZM21 39C16.2261 39 11.6477 37.1036 8.27209 33.7279C4.89643 30.3523 3.00001 25.7739 3.00001 21C3.00001 16.2261 4.89643 11.6477 8.27209 8.27208C11.6477 4.89642 16.2261 3 21 3V21L33.7215 33.7215C32.0532 35.3958 30.0705 36.724 27.8874 37.6299C25.7042 38.5357 23.3636 39.0013 21 39Z" fill="#388E3C"/>
</svg>
