<svg width="48" height="49" viewBox="0 0 48 49" fill="none" xmlns="http://www.w3.org/2000/svg">
<path d="M43 36.584H29V14.584H39.6C40.5 14.584 41.2 15.184 41.5 15.984L45 26.584V34.584C45 35.684 44.1 36.584 43 36.584Z" fill="#388E3C"/>
<path d="M29 36.584H5C3.9 36.584 3 35.684 3 34.584V9.58395C3 8.48395 3.9 7.58395 5 7.58395H27C28.1 7.58395 29 8.48395 29 9.58395V36.584Z" fill="#388E3C"/>
<path d="M37 41.584C39.7614 41.584 42 39.3454 42 36.584C42 33.8225 39.7614 31.584 37 31.584C34.2386 31.584 32 33.8225 32 36.584C32 39.3454 34.2386 41.584 37 41.584Z" fill="#388E3C"/>
<path d="M13 41.584C15.7614 41.584 18 39.3454 18 36.584C18 33.8225 15.7614 31.584 13 31.584C10.2386 31.584 8 33.8225 8 36.584C8 39.3454 10.2386 41.584 13 41.584Z" fill="#388E3C"/>
<path d="M37 38.584C38.1046 38.584 39 37.6885 39 36.584C39 35.4794 38.1046 34.584 37 34.584C35.8954 34.584 35 35.4794 35 36.584C35 37.6885 35.8954 38.584 37 38.584Z" fill="#FFFFFF"/>
<path d="M13 38.584C14.1046 38.584 15 37.6885 15 36.584C15 35.4794 14.1046 34.584 13 34.584C11.8954 34.584 11 35.4794 11 36.584C11 37.6885 11.8954 38.584 13 38.584Z" fill="#FFFFFF"/>
<path d="M41 25.584H34C33.4 25.584 33 25.184 33 24.584V17.584C33 16.984 33.4 16.584 34 16.584H39.3C39.7 16.584 40.1 16.884 40.2 17.284L41.9 22.484C41.9 22.584 42 22.684 42 22.784V24.584C42 25.184 41.6 25.584 41 25.584Z" fill="#FFFFFF"/>
<path d="M21.8 14.3839L13.9 22.2839L10.2 18.4839L8 20.6839L13.9 26.5839L24 16.4839L21.8 14.3839Z" fill="#FFFFFF"/>
</svg>
